<?xml version="1.0" encoding="UTF-8"?>
<svg xmlns="http://www.w3.org/2000/svg" version="1.1" viewBox="0 0 2919.7 1133.9">
  <defs>
    <style>
      .cls-1 {
        fill: #035590;
        fill-rule: evenodd;
      }
    </style>
  </defs>
  <!-- Generator: Adobe Illustrator 28.6.0, SVG Export Plug-In . SVG Version: 1.2.0 Build 709)  -->
  <g>
    <g id="Camada_1">
      <g id="Group_45">
        <path id="Path_138" class="cls-1" d="M1081.4,654.4c0-13.4,10.8-24.3,24.2-24.3,13.4,0,24.3,10.8,24.3,24.2,0,13.4-10.8,24.3-24.2,24.3h0c-13.4,0-24.2-10.8-24.2-24.2h0Z"/>
        <path id="Path_139" class="cls-1" d="M853.2,677.1v-110.9l-38.3,110.9h-77.5l88.2-251.5h96.4v128l93.2-128h116.4l-87,251.5h-87s30.4-88.6,35.2-108.5l-66.1,108.5h-73.5Z"/>
        <path id="Path_140" class="cls-1" d="M2883.7,425s-47.1,144.8-56.7,171c-44.2,120.9-296.9,112.7-263.4-7.1,10.4-37.1,51.9-163.9,51.9-163.9h78.5s-40.6,117.6-46.6,143.9c-9.5,41.5,80.7,40.7,98.9,4.2,24-48,54.7-148,54.7-148h82.7Z"/>
        <path id="Path_141" class="cls-1" d="M2589.7,424.8l-25.6,74.6-167.9,98.4h135.9l-24.6,78.5h-252.3l27.5-87.8,166.4-101h-133.3l23-62.7h250.9Z"/>
        <path id="Path_142" class="cls-1" d="M2314,424.8l-83.8,251.5h-78.3l85.4-251.5h76.7Z"/>
        <path id="Path_143" class="cls-1" d="M1935.6,676.4v-110.9l-38.3,110.9h-74.1c0-.1,83.1-252.2,83.1-252.2h100.5c0,0,0,129.4,0,129.4l90.9-128.8h116.4l-87,251.5h-87s30.4-88.6,35.2-108.5l-66.1,108.5h-73.5Z"/>
        <path id="Path_144" class="cls-1" d="M1884.4,424.8l-83.9,251.5h-78.3l85.4-251.5h76.7Z"/>
        <path id="Path_145" class="cls-1" d="M1785.4,424.8l-86.8,251.5h-86.4l27.3-78.5h-95l-26.3,78.5h-75.9l85.2-251.5h75.2l-34.5,102.4h97.5l37.5-102.4h82Z"/>
        <path id="Path_146" class="cls-1" d="M1485,441l-21.9,60.3c-55.3-22-118.3-18.8-133.9,1.8-22.8,30.4,108.3,40,113.9,89.6,6.1,54.4-39.4,126.8-278.9,64.8l21.5-75.4s125.9,76.1,151.1,29.2c19.9-37.1-146.8-37.2-110.5-121.9,37.8-88.2,196.8-74,258.7-48.4h0Z"/>
        <path id="Path_147" class="cls-1" d="M529.5,449.1l157.2,118.1-156.1,116.7-157.4-117.7,156.3-117.2h0Z"/>
        <path id="Path_148" class="cls-1" d="M362.2,812.2l157.2-117.8-156.7-118.4-158.3,118.3,157.8,117.9Z"/>
        <path id="Path_149" class="cls-1" d="M36,567.2l156,116.8,157.9-117.5-155.9-117.8-158,118.5Z"/>
        <path id="Path_150" class="cls-1" d="M362.2,321.6l-156.9,117.3,157.3,117.2,154.9-117.6-155.2-116.8h0Z"/>
      </g>
    </g>
  </g>
</svg>