<!-- <svg height="24" viewBox="0 0 24 24" width="24" xmlns="http://www.w3.org/2000/svg" xmlns:xlink="http://www.w3.org/1999/xlink"><linearGradient id="a" x1="14.104%" x2="85.896%" y1="0%" y2="100%"><stop offset="0" stop-color="#ffe16a"/><stop offset="1" stop-color="#b78103"/></linearGradient><g fill="none" fill-rule="evenodd" transform="translate(0 1)"><path d="m15.1110698 8.30009302h4.3585116c.3817736 0 .7460423.16013285 1.004093.44148838l3.5106977 3.8249302v4.8429768c0 .361502-.1435207.7082149-.3991412.9638355-.2556206.2556205-.6023335.3991412-.9638356.3991412h-1.0733023c0-1.3171606-1.0677696-2.3849302-2.3849302-2.3849302s-2.3849302 1.0677696-2.3849302 2.3849302h-1.6671628z" fill="url(#a)"/><circle cx="19.163" cy="18.772" fill="#7a4f01" r="2.385"/><path d="m15.1110698 12.5665116v6.2059535h-7.25860468c0-1.3173147-1.06789458-2.3852093-2.38520931-2.3852093-1.31731472 0-2.3852093 1.0678946-2.3852093 2.3852093h-1.70344186c-.36150206 0-.70821494-.1435207-.96383551-.3991412-.25562056-.2556206-.39914125-.6023335-.39914125-.9638355v-11.37934887c0-.36150206.14352069-.70821494.39914125-.9638355.25562057-.25562056.60233345-.39914126.96383551-.39914126h1.47851163c.08500164 2.4030825 2.05774024 4.30727527 4.46232558 4.30727527s4.37732394-1.90419277 4.46232554-4.30727527h1.9663256c.7527258 0 1.3629768.61025103 1.3629768 1.36297676z" fill="#b78103"/><path d="m11.7845581 4.51702326c0 .05023255-.0005581.10046511-.0027907.15013953-.0850016 2.40308248-2.0577402 4.30727525-4.46232554 4.30727525s-4.37732394-1.90419277-4.46232558-4.30727525c-.00223256-.04967442-.0027907-.09990698-.0027907-.15013953 0-2.46601563 1.99910065-4.46511628 4.46511628-4.46511628s4.46511624 1.99910065 4.46511624 4.46511628z" fill="#74caff" stroke="#74caff"/><path d="m5.46697674 16.3875349c1.3171606 0 2.38493024 1.0677696 2.38493024 2.3849302s-1.06776964 2.3849302-2.38493024 2.3849302c-1.31716059 0-2.38493023-1.0677696-2.38493023-2.3849302 0-1.3171478 1.06778241-2.3849302 2.38493023-2.3849302z" fill="#7a4f01"/><path d="m8.8096186 6.30306977c-.09917416.00012442-.19465699-.03760557-.26695813-.10548837l-1.49023256-1.39534884c-.0788836-.07387832-.12362791-.17713235-.12362791-.2852093v-2.89562791c0-.21577637.17492131-.39069768.39069767-.39069768.21577637 0 .39069768.17492131.39069768.39069768v2.72651163l1.36654884 1.27953488c.11707405.10960812.15527467.27962928.09633971.42878338-.05893496.14915409-.20303407.2471236-.36340948.2471236z" fill="#0c53b7"/></g></svg> -->
<svg fill="grey" xmlns="http://www.w3.org/2000/svg" viewBox="0 0 512 512"><!--!Font Awesome Free 6.6.0 by @fontawesome - https://fontawesome.com License - https://fontawesome.com/license/free Copyright 2024 Fonticons, Inc.--><path d="M78.6 5C69.1-2.4 55.6-1.5 47 7L7 47c-8.5 8.5-9.4 22-2.1 31.6l80 104c4.5 5.9 11.6 9.4 19 9.4l54.1 0 109 109c-14.7 29-10 65.4 14.3 89.6l112 112c12.5 12.5 32.8 12.5 45.3 0l64-64c12.5-12.5 12.5-32.8 0-45.3l-112-112c-24.2-24.2-60.6-29-89.6-14.3l-109-109 0-54.1c0-7.5-3.5-14.5-9.4-19L78.6 5zM19.9 396.1C7.2 408.8 0 426.1 0 444.1C0 481.6 30.4 512 67.9 512c18 0 35.3-7.2 48-19.9L233.7 374.3c-7.8-20.9-9-43.6-3.6-65.1l-61.7-61.7L19.9 396.1zM512 144c0-10.5-1.1-20.7-3.2-30.5c-2.4-11.2-16.1-14.1-24.2-6l-63.9 63.9c-3 3-7.1 4.7-11.3 4.7L352 176c-8.8 0-16-7.2-16-16l0-57.4c0-4.2 1.7-8.3 4.7-11.3l63.9-63.9c8.1-8.1 5.2-21.8-6-24.2C388.7 1.1 378.5 0 368 0C288.5 0 224 64.5 224 144l0 .8 85.3 85.3c36-9.1 75.8 .5 104 28.7L429 274.5c49-23 83-72.8 83-130.5zM56 432a24 24 0 1 1 48 0 24 24 0 1 1 -48 0z"/></svg>